<svg enable-background="new 0 0 100 100" viewBox="0 0 100 100" xmlns="http://www.w3.org/2000/svg"><path d="m86.9 19.8c-4.9-4-10.9-5.5-16.7-4.7 1.3 1 2.6 2 3.9 2.9 7.6 5.4 7.4 16.5 2.3 23.3-2.5 3.3-7.1 5.6-11.2 6-4.5.4-7.7-1.1-11.3-3.7l-.6-.4c1.2 4 2.5 7.4 5.9 10.2 9.3 7.6 23 6.3 30.6-3s6.4-23-2.9-30.6z" fill="#f9bc26"/><path d="m77.5 51.6c0-.4.1-.9.1-1.3 0-7.7-6.2-13.9-13.9-13.9-2.1 0-4.2.5-6 1.4-3.4-5-9.2-8.4-15.8-8.4-10 0-18.3 7.8-19 17.6-9.9.7-17.7 9-17.7 19.1 0 10.6 8.6 19.1 19.1 19.1h50.6c9.3 0 16.9-7.6 16.9-16.9-.1-8.4-6.3-15.4-14.3-16.7z" fill="#606060"/></svg>