<svg enable-background="new 0 0 200 200" viewBox="0 0 200 200" xmlns="http://www.w3.org/2000/svg"><path d="m189.4 156.8-85.9-140.5c-2-3.3-6.3-4.3-9.6-2.3-.6.4-1.1.8-1.5 1.2-.8.6-1.5 1.3-2 2.2l-80.5 139.5c-.3.6-.6 1.2-.8 1.9-.9 1.2-1.4 2.6-1.4 4.2 0 3.9 3.1 7 7 7h167.7c3.4 0 6.2-2.4 6.8-5.5 1.5-2.3 1.7-5.3.2-7.7zm-162.9-.8 70.9-122.8 75.1 122.8z" fill="#f00"/><path d="m172.5 156h-146l70.9-122.8z" fill="#fff"/><path d="m121 96v-.3l-2.6-12.4c-.2-.9-1-1.4-1.9-1.2h-.1l-20.8-7.2c-.7-.2-1.5 0-1.9.6-.3 0-.6.2-.9.4l-8.2 7.5c-1 .4-1.7 1.2-2.1 2.3l-2.1 6.1c-.7 2.1.4 4.4 2.5 5.1l31 10.7c2.1.7 4.4-.4 5.1-2.5l2.1-6.1c.4-1 .4-2.1-.1-3zm-31.9-12.3 5.9-5.4.2-.2 20.3 7 1.7 8.3z"/><path d="m115.3 108.3c-.5 0-1-.1-1.5-.2l-31-10.7c-2.3-.8-3.6-3.4-2.8-5.7l2.1-6.1c.4-1.1 1.2-2 2.3-2.6l8.1-7.4c.3-.2.6-.4.9-.5.6-.7 1.5-.9 2.3-.7l20.7 7.1c.5-.1 1.1 0 1.6.3s.8.8.9 1.3l2.6 12.4v.3c.4 1 .5 2.2.1 3.2l-2.1 6.1c-.6 2-2.3 3.2-4.2 3.2zm-20.1-33c-.4 0-.7.2-.9.5l-.2.2h-.2c-.2 0-.4.1-.6.3l-8.3 7.5c-.9.4-1.5 1.1-1.8 2l-2.2 6.2c-.6 1.8.3 3.8 2.2 4.4l31 10.7c1.8.6 3.8-.3 4.4-2.2l2.1-6.1c.3-.8.2-1.8-.1-2.6v-.4l-2.6-12.5c-.1-.3-.2-.5-.5-.7-.2-.2-.5-.2-.8-.2h-.3l-20.8-7.2c-.2.1-.3.1-.4.1zm22.8 18.8-29.8-10.2 6.6-6 .1-.1.2-.3.3.1 20.6 7.1zm-27.9-10.6 26.5 9.1-1.5-7.2-19.8-6.8zm18.4 29.6-.7-.2c-1.6-.5-2.4-2.3-1.9-3.9l.9-2.5c.1-.3 6.5 1.9 6.4 2.2l-.9 2.5c-.5 1.6-2.2 2.4-3.8 1.9zm-24.1-8-.7-.2c-1.6-.5-2.4-2.3-1.9-3.9l.9-2.5c.1-.3 6.5 1.9 6.4 2.2l-.9 2.5c-.5 1.6-2.2 2.4-3.8 1.9zm18.9 9.9c-1.1 3.1.4 5.9 3.2 7.7 2.5 1.6 5.6 2.2 8.3 3.6 2.2 1.1 4.1 2.2 5.4 4.3 2 3 1 5.9.7 9.2-.2 1.8 1.9 4.6 2.9 1.8 1.8-4.9 1.5-10.8-2.1-14.8-1.9-2.1-4.5-3.5-7.1-4.5-3.1-1.2-11.6-1.9-10.9-7.1-.1-.2-.3-.5-.4-.2zm-7.6-3.7c-4 1.5-18.7 6-14.6 13 .7 1.3 2.1 2 3.3 2.6 1.5.8 3.1 1.4 4.6 2.1s5.4 2.2 6 3.5c1.9 3.8-11.8 9.2-14.2 11.9-.6.7-.9 3.5.7 3.3 4.7-.6 10.6-5.5 14-8.6 2.3-2.1 3.9-5.1 2.3-8.1-2.2-4.1-9.1-5.5-12.9-7.4-3.7-1.8-.8-4.2 1.6-6 2.8-2.2 6.1-3.7 9.4-5 .5-.3.4-1.5-.2-1.3zm-11.7-3.2c-4.7 2.2-9.5 4.3-13.9 6.9-3.2 1.8-6.1 3.7-7.2 7.3-.3 1 .8 3.5 1.6 1.8 3.5-7.1 13.2-11 19.9-14.5.5-.2.3-1.8-.4-1.5z"/></svg>