<svg enable-background="new 0 0 100 100" viewBox="0 0 100 100" xmlns="http://www.w3.org/2000/svg"><path d="m76.9 16.9c-9.2-7.6-20.7-10.4-31.7-9 2.5 1.9 4.9 3.7 7.5 5.5 14.3 10.2 13.9 31.4 4.3 44.2-4.7 6.3-13.5 10.6-21.2 11.3-8.6.8-14.5-2.1-21.4-7-.5-.4-.6-.3-1.1-.7 2.3 7.5 4.7 14 11.2 19.4 17.6 14.4 43.5 11.9 58-5.7s12-43.6-5.6-58z" fill="#f9bc26"/><path d="m56.6 69.9c0-.3.1-.6.1-.9 0-5.2-4.2-9.3-9.3-9.3-1.4 0-2.8.3-4 .9-2.4-3.4-6.2-5.6-10.7-5.6-6.7 0-12.3 5.2-12.8 11.8-6.7.5-11.9 6-11.9 12.8 0 7.1 5.8 12.8 12.8 12.8h34c6.2 0 11.4-5.1 11.4-11.4-.1-5.6-4.2-10.2-9.6-11.1z" fill="#606060"/></svg>