<svg enable-background="new 0 0 100 100" viewBox="0 0 100 100" xmlns="http://www.w3.org/2000/svg"><path d="m70 84.8c.4 1.9.7 3.1.2 4.4-.9 2.4-3.8 4.5-6.3 3.7-2.6-.9-3.9-3.5-3.2-6.2.4-1.8 1.4-3.3 3-4.3.9-.5 1.5-.5 2.6-1.3.8-.6 1.3-1.2 1.6-1.7.7 1.3 1.6 3.1 2.1 5.4zm13.4-15.3c.4 1.9.7 3.1.2 4.4-.9 2.4-3.8 4.5-6.3 3.7-2.6-.9-3.9-3.5-3.2-6.2.4-1.8 1.4-3.3 3-4.3.9-.5 1.5-.5 2.6-1.3.8-.6 1.3-1.2 1.6-1.7.6 1.2 1.5 3 2.1 5.4zm-52.7 15.9c.1 2 .2 3.2-.5 4.4-1.2 2.2-4.5 3.9-6.8 2.6-2.5-1.4-3.3-4.1-2.2-6.7.7-1.7 1.9-3.1 3.7-3.8 1-.4 1.6-.2 2.8-.8.9-.5 1.5-1 1.9-1.4.4 1.3 1 3.3 1.1 5.7zm20.3-.3c.3 1.9.6 3.1 0 4.4-1 2.3-4.1 4.4-6.5 3.4-2.6-1.1-3.8-3.7-3-6.4.5-1.8 1.5-3.3 3.2-4.2.9-.5 1.5-.4 2.6-1.2.8-.6 1.4-1.2 1.7-1.6.8 1.3 1.6 3.2 2 5.6zm-33.9-18.1c-1.6 1.1-2.6 1.8-3.2 3.1-1 2.3-.3 6 2.1 7 2.6 1.1 5.3 0 6.6-2.4.9-1.6 1.3-3.4.7-5.2-.3-1-.8-1.4-1-2.7-.2-1-.1-1.8 0-2.4-1.3.5-3.2 1.2-5.2 2.6zm20.1 0c-1.6 1.1-2.6 1.8-3.2 3.1-1 2.3-.3 6 2.1 7 2.6 1.1 5.3 0 6.6-2.4.9-1.6 1.3-3.4.7-5.2-.3-1-.8-1.4-1-2.7-.2-1-.1-1.8 0-2.4-1.3.5-3.2 1.2-5.2 2.6zm27 3.1c.1 2 .2 3.2-.5 4.4-1.2 2.2-4.5 3.9-6.8 2.6-2.5-1.4-3.3-4.1-2.2-6.7.7-1.7 1.9-3.1 3.7-3.8 1-.4 1.6-.2 2.8-.8.9-.5 1.5-1 1.9-1.4.3 1.3 1 3.2 1.1 5.7z" fill="#1c3660"/><path d="m84.3 28.9c0-.4.1-.8.1-1.3 0-7.6-6.2-13.8-13.8-13.8-2.2 0-4.1.4-5.9 1.3-3.4-4.9-9.2-8.3-15.6-8.3-10 0-18.1 7.6-18.9 17.4-9.7.7-17.4 8.9-17.4 18.9 0 10.4 8.5 18.9 18.9 18.9h50.1c9.3 0 16.7-7.5 16.7-16.7-.2-8.2-6.2-15-14.2-16.4z" fill="#606060"/><path d="m50.3 36.6v-.9c0-5.1-4.2-9.4-9.4-9.4-1.4 0-2.8.4-4 .9-2.3-3.4-6.2-5.6-10.6-5.6-6.7 0-12.2 5.2-12.8 11.8-6.7.4-11.9 6-11.9 12.8.1 7.1 5.8 12.9 12.9 12.9h33.9c6.2 0 11.3-5 11.3-11.3 0-5.6-4.1-10.3-9.4-11.2z" fill="#bcbcbc"/></svg>