<svg enable-background="new 0 0 100 100" viewBox="0 0 100 100" xmlns="http://www.w3.org/2000/svg"><path d="m20.9 76.1c-.4.3-.7.5-.8.8-.3.6-.1 1.5.5 1.8.7.3 1.4 0 1.7-.6.2-.4.3-.9.2-1.3-.1-.3-.2-.4-.3-.7s0-.5 0-.6c-.3.1-.8.3-1.3.6z" fill="#1c3660"/><path d="m79.1 34.7c0-.4.1-.9.1-1.3 0-7.7-6.2-13.9-13.9-13.9-2.1 0-4.2.5-6 1.4-3.4-5-9.2-8.4-15.8-8.4-10 0-18.3 7.8-19 17.6-9.9.7-17.7 9-17.7 19.1-.1 10.4 8.4 19 19 19h50.6c9.3 0 16.8-7.6 16.8-16.9 0-8.3-6.1-15.3-14.1-16.6z" fill="#606060"/><path d="m33.4 76.9c0 .5.1.8-.1 1.1-.3.6-1.2 1-1.8.7-.6-.4-.9-1.1-.6-1.7.2-.4.5-.8 1-1 .3-.1.4-.1.7-.2.2-.1.4-.3.5-.4.1.4.3.9.3 1.5zm9.4-.6c-.4.3-.7.5-.8.8-.3.6-.1 1.5.5 1.8.7.3 1.4 0 1.7-.6.2-.4.3-.9.2-1.3-.1-.3-.2-.4-.3-.7s0-.5 0-.6c-.3 0-.8.2-1.3.6zm10.3 0c-.4.3-.7.5-.8.8-.3.6-.1 1.5.5 1.8.7.3 1.4 0 1.7-.6.2-.4.3-.9.2-1.3-.1-.3-.2-.4-.3-.7s0-.5 0-.6c-.3 0-.8.2-1.3.6zm12.5.8c0 .5.1.8-.1 1.1-.3.6-1.2 1-1.8.7-.6-.4-.9-1.1-.6-1.7.2-.4.5-.8 1-1 .3-.1.4-.1.7-.2.2-.1.4-.3.5-.4.1.3.3.8.3 1.5zm8.3-.7c-.4.3-.7.5-.8.8-.3.6-.1 1.5.5 1.8.7.3 1.4 0 1.7-.6.2-.4.3-.9.2-1.3-.1-.3-.2-.4-.3-.7s0-.5 0-.6c-.3 0-.8.2-1.3.6z" fill="#1c3660"/></svg>