<svg enable-background="new 0 0 100 100" viewBox="0 0 100 100" xmlns="http://www.w3.org/2000/svg"><path d="m84.6 31.5c0-.5.1-.8.1-1.3 0-7.9-6.4-14.3-14.3-14.3-2.2 0-4.3.5-6.1 1.4-3.5-5.1-9.5-8.5-16.2-8.5-10.3 0-18.7 7.9-19.5 18-10 .7-18 9.2-18 19.5 0 10.8 8.7 19.5 19.5 19.5h51.7c9.6 0 17.3-7.7 17.3-17.3-.1-8.6-6.4-15.6-14.5-17z" fill="#606060"/><path d="m60.6 58.4-10.7 5.9 7.5-19.8-15.1 29.1 12.7-9.8-5.7 22.9-3.3-.9 2 5.4 7.2-2.8-3.8-.9z" fill="#f72649"/><path d="m50.5 39.5v-.9c0-5.2-4.3-9.5-9.5-9.5-1.5 0-2.8.4-4.1.9-2.4-3.5-6.3-5.7-10.8-5.7-6.9 0-12.5 5.3-13 12-6.8.5-12.1 6.1-12.1 13 0 7.2 5.9 13 13 13h34.5c6.3 0 11.5-5.1 11.5-11.5.1-5.7-4.1-10.4-9.5-11.3z" fill="#bcbcbc"/><path d="m94.9 79.9-17.4-28.5c-.4-.7-1.3-.9-1.9-.5l-.3.3c-.2.1-.3.3-.4.5l-16.4 28.2c-.1.1-.1.2-.2.4-.2.2-.3.5-.3.9 0 .8.6 1.4 1.4 1.4h33.9c.7 0 1.2-.5 1.4-1.1.4-.5.5-1.1.2-1.6zm-33-.2 14.4-24.9 15.2 24.9z" fill="#f00"/><path d="m91.5 79.7h-29.6l14.4-24.9z" fill="#fff"/><path d="m79.1 75.7c0 .6-.2 1.1-.6 1.5s-.9.6-1.5.6-1.1-.2-1.5-.6-.6-.9-.6-1.5.2-1.1.6-1.5.9-.6 1.5-.6 1.1.2 1.5.6.6.9.6 1.5zm-.1-7.2-.7 4h-2.6l-.7-4v-5h4z"/><path d="m46.6 47.9-11.6 4 10.8-18.2-19.9 26 14.2-7.5-9.6 21.6-3.1-1.4 1.1 5.7 7.6-1.6-3.6-1.6z" fill="#f72649"/></svg>