<svg enable-background="new 0 0 100 100" viewBox="0 0 100 100" xmlns="http://www.w3.org/2000/svg"><path d="m84.2 29.1c0-.4.1-.8.1-1.3 0-7.6-6.2-13.8-13.8-13.8-2.2 0-4.1.4-5.9 1.3-3.4-4.9-9.2-8.3-15.6-8.3-10 0-18.1 7.6-18.9 17.4-9.7.7-17.4 8.9-17.4 18.9 0 10.4 8.5 18.9 18.9 18.9h50.1c9.3 0 16.7-7.5 16.7-16.7-.2-8.2-6.2-15-14.2-16.4z" fill="#72befc"/><path d="m76.1 60.3v-3l-3.2-1.3.7-1.3 2.4 1.3v-1.4l-1.8-1 .7-1.3 1 .6v-2.7h1.5v2.7l1-.6.7 1.3-1.8 1v1.4l2.4-1.4.7 1.3-3.1 1.8v3l1.1-1.9 1.3.7-1.1 1.9 2.6-1.5v-3.6h1.5v2.8l1.2-.7v-2h1.5v1.2l2.3-1.4.7 1.3-2.3 1.4 1.2.5-.7 1.3-1.8-1-1.2.7 2.4 1.4-.8 1.2-3.1-1.8-2.6 1.5h2.2v1.5h-2.2l2.6 1.5 3.1-1.8.7 1.3-2.4 1.4 1.2.7 1.8-1 .7 1.3-1 .6 2.4 1.3-.7 1.3-2.4-1.3v1.2h-1.5v-2l-1.2-.7v2.8h-1.5v-3.6l-2.6-1.5 1.1 1.9-1.3.7-1.1-1.9v3l3.1 1.8-.7 1.3-2.4-1.4v1.4l1.8 1-.7 1.3-1-.6v2.7h-1.5v-2.7l-1 .6-.7-1.3 1.8-1v-1.4l-2.4 1.4-.8-1.5 3.1-1.8v-3l-1.1 1.9-1.3-.7 1.1-1.9-2.5 1.5v3.6h-1.5v-2.8l-1.2.7v2h-1.5v-1.2l-2.3 1.4-.7-1.3 2.3-1.4-1-.6.7-1.3 1.8 1 1.2-.7-2.4-1.4.7-1.3 3.1 1.8 2.6-1.5h-2.2v-1.5h2.2l-2.6-1.5-3.1 1.8-.7-1.3 2.4-1.4-1.2-.7-1.8 1-.7-1.3 1-.6-2.4-1.3.7-1.3 2.4 1.3v-1.2h1.5v2l1.2.7v-2.8h1.5v3.6l2.6 1.5-1.1-1.9m3.1 5.8 1.2-.7v-1.4l-1.2-.7-1.2.7v1.4zm-14.9 10.7-.7 1.3-1.8-1-1.2.7 2.4 1.4-.7 1.3-3.1-1.8-2.7 1.5h2.2v1.5h-2.2l2.6 1.5 3.1-1.8.7 1.3-2.4 1.4 1.2.7 1.8-1 .7 1.3-1 .6 2.4 1.3-.7 1.3-2.4-1.3v1.2h-1.5v-2l-1.2-1v2.8h-1.5v-3.6l-2.6-1.5 1.1 1.9-1.3.7-1.1-1.9v3l3.1 1.8-.7 1.3-2.4-1.4v1.4l1.8 1-.7 1.3-1-.6v2.7h-1.5v-2.7l-1 .6-.7-1.3 1.8-1v-1.4l-2.4 1.4-.7-1.3 3.1-1.8v-3l-1.1 1.9-1.3-.7 1.1-1.9-2.6 1.5v3.6h-1.5v-2.8l-1.2.7v2h-1.5v-1.2l-2.3 1.5-.7-1.3 2.3-1.4-1-.6.7-1.3 1.8 1 1.2-.7-2.4-1.4.7-1.3 3.1 2 2.6-1.5h-2.2v-1.5h2.2l-2.6-1.5-3.1 1.8-.7-1.3 2.4-1.4-1.3-.6-1.8 1-.7-1.3 1-.6-2.4-1.3.7-1.3 2.4 1.3v-1.2h1.5v2l1.2.7v-2.8h1.5v3.6l2.6 1.5-1.1-1.9 1.3-.7 1.1 1.9v-3l-3.1-1.8.7-1.3 2.4 1.4v-1.4l-1.8-1 .7-1.3 1 .6v-2.7h1.5v2.7l1-.6.7 1.3-1.8 1v1.4l2.4-1.4.7 1.3-2.9 1.9v3l1.1-1.9 1.3.7-1.1 1.9 2.6-1.5v-3.6h1.5v2.8l1.2-.7v-2h1.5v1.2l2.3-1.4.7 1.3-2.4 1.2zm-10.5 5.5 1.2-.7v-1.4l-1.2-.7-1.3.7v1.4zm-15.5-21.9-.7 1.3-1.8-1-1.2.7 2.4 1.4-.7 1.3-3.2-1.9-2.6 1.5h2.2v1.5h-2.2l2.6 1.5 3.1-1.8.7 1.3-2.4 1.4 1.2.7 1.8-1 .7 1.3-1 .6 2.4 1.3-.7 1.3-2.4-1.3v1.2h-1.5v-2l-1.2-.7v2.8h-1.5v-3.6l-2.6-1.5 1.1 1.9-1.1.6-1.1-1.9v3l3.1 1.8-.7 1.3-2.4-1.4v1.4l1.8 1-.7 1.3-1-.6v2.7h-1.5v-2.7l-1 .6-.8-1.3 1.8-1v-1.4l-2.4 1.4-.7-1.3 3.1-1.8v-3l-1.2 1.9-1.3-.7 1.1-1.9-2.6 1.5v3.6h-1.5v-2.8l-1.2.7v2h-1.5v-1.2l-2.3 1.4-.7-1.3 2.3-1.4-1-.6.7-1.3 1.8 1 1.2-.7-2.4-1.4.7-1.3 3.1 1.8 2.6-1.5h-2.2v-1.5h2.2l-2.6-1.5-3 2-.7-1.3 2.4-1.4-1.2-.7-1.8 1-.7-1.3 1-.6-2.4-1.3.7-1.3 2.4 1.3v-1.2h1.5v2l1.2.7v-2.8h1.5v3.6l2.6 1.5-1.1-1.9 1.3-.7 1.1 1.9v-3l-3.1-1.8.7-1.3 2.4 1.4v-1.4l-1.8-1 .7-1.3 1 .6v-2.7h1.5v2.7l1-.6.7 1.3-1.8 1v1.4l2.4-1.4.7 1.3-3.1 1.8v3l1.1-1.9 1.3.7-1.1 1.9 2.6-1.5v-3.6h1.5v2.8l1.2-.7v-2h1.5v1.2l2.3-1.4.7 1.3-2.3 1.4zm-10.5 5.5 1.2-.7v-1.4l-1.2-.7-1.2.7v1.4z" fill="#0083ff"/><path d="m50.2 36.8v-.9c0-5.1-4.2-9.4-9.4-9.4-1.4 0-2.8.4-4 .9-2.3-3.4-6.2-5.6-10.6-5.6-6.7 0-12.2 5.2-12.8 11.8-6.6.4-11.8 6-11.8 12.8.1 7.1 5.8 12.9 12.9 12.9h33.9c6.2 0 11.3-5 11.3-11.3 0-5.6-4.2-10.3-9.5-11.2z" fill="#e6e6e6"/></svg>