<svg enable-background="new 0 0 100 100" viewBox="0 0 100 100" xmlns="http://www.w3.org/2000/svg"><path d="m90.5 30.1-7.3 3.3 5.3 6.1-8.1-.1 2.2 7.7-7.2-3.6-1.4 8-4.9-6.5-4.8 6.5-1.5-8-7.2 3.6 2.2-7.7-8.1.1 5.3-6.1-7.3-3.3 7.3-3.3-5.3-6.1 8.1.1-2.2-7.7 7.2 3.6 1.5-8 4.8 6.5 4.9-6.5 1.4 8 7.2-3.6-2.2 7.7 8.1-.1-5.3 6.1z" fill="#ffd400"/><ellipse cx="69.3" cy="30.5" fill="#fff" rx="13" ry="13.2"/><ellipse cx="69.3" cy="30.5" fill="#ffd400" rx="12" ry="12.2"/><path d="m79 39.2c0-.4.1-.9.1-1.3 0-7.7-6.3-14-14-14-2.2 0-4.2.4-6.1 1.3-3.4-5.1-9.2-8.4-15.7-8.4-10 0-18.3 7.8-19 17.6-9.9.8-17.7 9-17.7 19 0 10.6 8.6 19.1 19.1 19.1h50.6c9.4 0 16.9-7.6 16.9-16.9 0-8.2-6.1-15.1-14.2-16.4z" fill="#72befc"/><path d="m71.3 70.7-.9 1.5-2.1-1.2-1.5 1 2.8 1.6-.7 1.4-3.7-2.1-3.1 1.8h2.7v1.7h-2.6l3.1 1.7 3.7-2.1.9 1.5-2.9 1.7 1.5.9 2.1-1.2.9 1.5-1.4.6 2.8 1.6-.9 1.4-2.8-1.6v1.3h-1.7v-2.4l-1.5-.8v3.3h-1.7v-4.3l-3.1-1.7 1.3 2.3-1.6 1-1.3-2.3v3.6l3.7 2.1-.7 1.5-2.8-1.6v1.7l2.1 1.2-.9 1.5-1.2-.7v3.2h-1.7v-3.2l-1.2.7-.9-1.6 2.1-1.2v-1.7l-2.8 1.7-.9-1.5 3.7-2.2v-3.6l-1.3 2.3-1.5-.9 1.3-2.3-3.2 1.8v4.4h-1.7v-3.3l-1.5.9v2.4h-1.7v-1.3l-2.8 1.6-.9-1.6 2.8-1.6-1.2-.7.9-1.5 2.1 1.2 1.5-.9-2.9-1.5.9-1.5 3.7 2.1 3.1-1.8h-2.7v-1.7h2.6l-3.2-1.8-3.7 2.2-.9-1.5 2.8-1.6-1.5-.9-2.1 1.2-.9-1.5 1.2-.7-2.8-1.6.9-1.5 2.8 1.6v-1.3h1.7v2.6l1.5.9v-3.3h1.7v4.3l3.1 1.7-1.2-2.4 1.5-.9 1.3 2.3v-3.6l-3.6-2 .9-1.5 2.8 1.6v-1.7l-2.1-1.2.9-1.5 1.2.7v-3.2h1.7v3.2l1.2-.7.9 1.5-2.1 1.2v1.7l2.8-1.6.9 1.5-3.7 2.2v3.6l1.3-2.3 1.5.9-1.4 2.2 3.1-1.7v-4.3h1.7v3.3l1.5-.9v-2.4h1.7v1.4l2.8-1.6.9 1.5-2.8 1.6zm-12.5 6.5 1.5-.9v-1.7l-1.5-.9-1.5.9v1.7zm-20.1 2.6c.5 2.4.9 3.9.3 5.6-1.1 3-4.9 5.8-8 4.7-3.4-1.2-4.9-4.5-4.1-7.9.6-2.3 1.8-4.3 3.8-5.4 1.1-.6 1.9-.6 3.3-1.6 1-.7 1.6-1.6 2.1-2.2.8 1.5 1.9 3.8 2.6 6.8z" fill="#0083ff"/></svg>