<svg enable-background="new 0 0 100 100" viewBox="0 0 100 100" xmlns="http://www.w3.org/2000/svg"><path d="m76.4 36c0-.4.1-.8.1-1.2 0-7-5.7-12.7-12.7-12.7-2 0-3.8.4-5.5 1.2-3.1-4.6-8.4-7.6-14.3-7.6-9.1 0-16.6 7.1-17.3 16-9 .7-16.1 8.2-16.1 17.3 0 9.6 7.8 17.4 17.4 17.4h46c8.5 0 15.4-6.9 15.4-15.4-.1-7.5-5.7-13.8-13-15z" fill="#1c3660"/><path d="m69 64.8-.8 1.4-2-1.1-1.3.8 2.7 1.6-.8 1.3-3.4-2-2.9 1.7h2.4v1.7h-2.4l2.9 1.7 3.4-2 .8 1.4-2.7 1.6 1.3.8 2-1.1.8 1.4-1.1.7 2.7 1.4-.8 1.4-2.7-1.5v1.3h-1.7v-2.2l-1.3-.8v3.1h-1.7v-4l-2.9-1.7 1.2 2.1-1.4.8-1.2-2.1v3.3l3.4 2-.8 1.4-2.7-1.6v1.6l2 1.1-.8 1.4-1.1-.7v3h-1.7v-3l-1.1.7-.8-1.6 2-1.1v-1.6l-2.7 1.6-.8-1.3 3.4-2v-3.3l-1.2 2.1-1.4-.8 1.2-2.1-2.8 1.7v4h-1.7v-3.1l-1.3.8v2.2h-1.7v-1.3l-2.5 1.5-.8-1.4 2.6-1.6-1.1-.7.8-1.4 2 1.1 1.3-.8-2.6-1.6.8-1.4 3.4 2 2.9-1.7h-2.4v-1.7h2.4l-2.9-1.7-3.4 2.3-.8-1.4 2.7-1.6-1.3-.8-2 1.1-.8-1.4 1.1-.7-2.7-1.4.8-1.4 2.7 1.4v-1.3h1.7v2.2l1.3.8v-3.1h1.7v4l2.9 1.7-1.2-2.1 1.4-.8 1.2 2.1v-3.3l-3.8-1.8.8-1.4 2.7 1.6v-1.6l-2-1.1.8-1.4 1.1.7v-3h1.7v3l1.1-.7.8 1.4-2 1.1v1.6l2.7-1.6.8 1.4-3.4 2v3.3l1.2-2.1 1.4.8-1.2 2.1 2.9-1.7v-4h1.7v3.1l1.3-.8v-2.2h1.7v1.3l2.6-1.6.8 1.4-2.6 1.6zm-11.7 6.1 1.3-.8v-1.6l-1.3-.8-1.3.8v1.6z" fill="#0083ff"/><path d="m39 73.2c.5 2.2.8 3.5.2 5.1-1 2.7-4.4 5.3-7.3 4.2-3.1-1.1-4.5-4.1-3.8-7.2.5-2.1 1.6-3.9 3.5-4.9 1-.6 1.7-.5 3-1.5.9-.7 1.5-1.4 1.9-2 .8 1.4 1.9 3.5 2.5 6.3z" fill="#1c3660"/></svg>