<svg enable-background="new 0 0 100 100" viewBox="0 0 100 100" xmlns="http://www.w3.org/2000/svg"><path d="m68.2 32.6c-5.8-4.8-13.1-6.6-20-5.7 1.6 1.2 3.1 2.4 4.7 3.5 9.1 6.4 8.8 19.8 2.8 27.9-3 4-8.5 6.7-13.4 7.2-5.4.5-9.2-1.3-13.5-4.4-.3-.2-.4-.2-.7-.4 1.5 4.7 3 8.9 7.1 12.2 11.1 9.1 27.5 7.5 36.6-3.6s7.5-27.6-3.6-36.7z" fill="#f9bc26"/><g opacity=".24"><path d="m95.3 52.5c0 7.8-7.9 14.2-17.6 14.2-1 0-2-.1-3-.2-.4 7.3-9.3 13.2-20.1 13.2-6.4 0-12.3-2-16.1-5.5-2.8 1.2-5.9 1.9-9.1 1.9-10.6 0-19.3-7-19.3-15.7 0-.5 0-.9.1-1.5-3.9-2.8-6.1-6.7-6.1-10.9 0-7.6 7.3-13.8 16.8-14.4 1.3-9.3 9.6-16.5 19.5-16.5 8 0 15.1 4.6 18.2 11.6 2.4-1.1 5-1.7 7.7-1.7 8 0 14.9 4.9 16.7 11.8 7.3 2 12.3 7.5 12.3 13.7z" fill="#f2f2f2"/><path d="m95.3 52.5c0 7.8-7.9 14.2-17.6 14.2-1 0-2-.1-3-.2-.4 7.3-9.3 13.2-20.1 13.2-6.4 0-12.3-2-16.1-5.5-2.8 1.2-5.9 1.9-9.1 1.9-10.6 0-19.3-7-19.3-15.7 0-.5 0-.9.1-1.5-3.9-2.8-6.1-6.7-6.1-10.9 0-7.6 7.3-13.8 16.8-14.4 1.3-9.3 9.6-16.5 19.5-16.5 8 0 15.1 4.6 18.2 11.6 2.4-1.1 5-1.7 7.7-1.7 8 0 14.9 4.9 16.7 11.8 7.3 2 12.3 7.5 12.3 13.7z" fill="none" stroke="#f2f2f2" stroke-miterlimit="10"/></g><g opacity=".24"><path d="m106.5 45.5c0 7.8-7.9 14.2-17.6 14.2-1 0-2-.1-3-.2-.4 7.3-9.3 13.2-20.1 13.2-6.4 0-12.3-2-16.1-5.5-2.8 1.2-5.9 1.9-9.1 1.9-10.6-.1-19.3-7.1-19.3-15.8 0-.5 0-.9.1-1.5-3.9-2.8-6.2-6.7-6.2-10.8 0-7.6 7.3-13.8 16.8-14.4 1.3-9.3 9.6-16.5 19.5-16.5 8 0 15.1 4.6 18.2 11.6 2.4-1.1 5-1.7 7.7-1.7 8 0 14.9 4.9 16.7 11.8 7.4 2 12.4 7.5 12.4 13.7z" fill="#f2f2f2"/><path d="m106.5 45.5c0 7.8-7.9 14.2-17.6 14.2-1 0-2-.1-3-.2-.4 7.3-9.3 13.2-20.1 13.2-6.4 0-12.3-2-16.1-5.5-2.8 1.2-5.9 1.9-9.1 1.9-10.6-.1-19.3-7.1-19.3-15.8 0-.5 0-.9.1-1.5-3.9-2.8-6.2-6.7-6.2-10.8 0-7.6 7.3-13.8 16.8-14.4 1.3-9.3 9.6-16.5 19.5-16.5 8 0 15.1 4.6 18.2 11.6 2.4-1.1 5-1.7 7.7-1.7 8 0 14.9 4.9 16.7 11.8 7.4 2 12.4 7.5 12.4 13.7z" fill="none" stroke="#f2f2f2" stroke-miterlimit="10"/></g><g opacity=".24"><path d="m109.7 62.7c0 7.8-7.9 14.2-17.6 14.2-1 0-2-.1-3-.2-.4 7.3-9.3 13.2-20.1 13.2-6.4 0-12.3-2-16.1-5.5-2.8 1.2-5.9 1.9-9.1 1.9-10.6 0-19.3-7-19.3-15.7 0-.5 0-.9.1-1.5-3.9-2.8-6.2-6.7-6.2-10.8 0-7.6 7.3-13.8 16.8-14.4 1.3-9.3 9.6-16.5 19.5-16.5 8 0 15.1 4.6 18.2 11.6 2.4-1.1 5-1.7 7.7-1.7 8 0 14.9 4.9 16.7 11.8 7.3 1.9 12.4 7.4 12.4 13.6z" fill="#f2f2f2"/><path d="m109.7 62.7c0 7.8-7.9 14.2-17.6 14.2-1 0-2-.1-3-.2-.4 7.3-9.3 13.2-20.1 13.2-6.4 0-12.3-2-16.1-5.5-2.8 1.2-5.9 1.9-9.1 1.9-10.6 0-19.3-7-19.3-15.7 0-.5 0-.9.1-1.5-3.9-2.8-6.2-6.7-6.2-10.8 0-7.6 7.3-13.8 16.8-14.4 1.3-9.3 9.6-16.5 19.5-16.5 8 0 15.1 4.6 18.2 11.6 2.4-1.1 5-1.7 7.7-1.7 8 0 14.9 4.9 16.7 11.8 7.3 1.9 12.4 7.4 12.4 13.6z" fill="none" stroke="#f2f2f2" stroke-miterlimit="10"/></g><g opacity=".24"><path d="m91.4 62.7c0 7.8-7.9 14.2-17.6 14.2-1 0-2-.1-3-.2-.4 7.3-9.3 13.2-20.1 13.2-6.4 0-12.3-2-16.1-5.5-2.8 1.2-5.9 1.9-9.1 1.9-10.6 0-19.3-7-19.3-15.7 0-.5 0-.9.1-1.5-3.9-2.8-6.2-6.7-6.2-10.8 0-7.6 7.3-13.8 16.8-14.4 1.3-9.3 9.6-16.5 19.5-16.5 8 0 15.1 4.6 18.2 11.6 2.4-1.1 5-1.7 7.7-1.7 8 0 14.9 4.9 16.7 11.8 7.4 1.9 12.4 7.4 12.4 13.6z" fill="#f2f2f2"/><path d="m91.4 62.7c0 7.8-7.9 14.2-17.6 14.2-1 0-2-.1-3-.2-.4 7.3-9.3 13.2-20.1 13.2-6.4 0-12.3-2-16.1-5.5-2.8 1.2-5.9 1.9-9.1 1.9-10.6 0-19.3-7-19.3-15.7 0-.5 0-.9.1-1.5-3.9-2.8-6.2-6.7-6.2-10.8 0-7.6 7.3-13.8 16.8-14.4 1.3-9.3 9.6-16.5 19.5-16.5 8 0 15.1 4.6 18.2 11.6 2.4-1.1 5-1.7 7.7-1.7 8 0 14.9 4.9 16.7 11.8 7.4 1.9 12.4 7.4 12.4 13.6z" fill="none" stroke="#f2f2f2" stroke-miterlimit="10"/></g><g opacity=".75"><path d="m67.9 44.8c0 1.6-6.9 2.9-15.3 2.9h-2.6c-.4 1.5-8.1 2.7-17.5 2.7-5.6 0-10.8-.4-14-1.1-2.4.2-5.2.4-7.9.4-9.3 0-16.8-1.4-16.8-3.2 0-.1 0-.2.1-.3-3.4-.6-5.4-1.4-5.4-2.2 0-1.6 6.4-2.8 14.7-3 1.1-1.9 8.4-3.4 17-3.4 7 0 13.2.9 15.8 2.4 2.1-.2 4.4-.3 6.7-.3 7 0 13 1 14.5 2.4 6.3.3 10.7 1.4 10.7 2.7z" fill="#ccc"/><path d="m67.9 44.8c0 1.6-6.9 2.9-15.3 2.9h-2.6c-.4 1.5-8.1 2.7-17.5 2.7-5.6 0-10.8-.4-14-1.1-2.4.2-5.2.4-7.9.4-9.3 0-16.8-1.4-16.8-3.2 0-.1 0-.2.1-.3-3.4-.6-5.4-1.4-5.4-2.2 0-1.6 6.4-2.8 14.7-3 1.1-1.9 8.4-3.4 17-3.4 7 0 13.2.9 15.8 2.4 2.1-.2 4.4-.3 6.7-.3 7 0 13 1 14.5 2.4 6.3.3 10.7 1.4 10.7 2.7z" fill="none" stroke="#ccc" stroke-miterlimit="10"/></g><g opacity=".75"><path d="m102.1 58c0 1.4-5.2 2.6-11.5 2.6h-2c-.3 1.3-6 2.4-13.1 2.4-4.2 0-8-.4-10.5-1-1.8.2-3.9.3-5.9.3-6.9 0-12.6-1.3-12.6-2.8 0-.1 0-.2.1-.3-2.6-.5-4-1.2-4-1.9 0-1.4 4.8-2.5 11-2.6.8-1.7 6.3-3 12.7-3 5.2 0 9.9.8 11.9 2.1 1.6-.2 3.3-.3 5-.3 5.2 0 9.7.9 10.9 2.1 4.8.3 8 1.2 8 2.4z" fill="#ccc"/><path d="m102.1 58c0 1.4-5.2 2.6-11.5 2.6h-2c-.3 1.3-6 2.4-13.1 2.4-4.2 0-8-.4-10.5-1-1.8.2-3.9.3-5.9.3-6.9 0-12.6-1.3-12.6-2.8 0-.1 0-.2.1-.3-2.6-.5-4-1.2-4-1.9 0-1.4 4.8-2.5 11-2.6.8-1.7 6.3-3 12.7-3 5.2 0 9.9.8 11.9 2.1 1.6-.2 3.3-.3 5-.3 5.2 0 9.7.9 10.9 2.1 4.8.3 8 1.2 8 2.4z" fill="none" stroke="#ccc" stroke-miterlimit="10"/></g><g opacity=".75"><path d="m99.3 80.1c0 1.2-5.3 2.1-11.9 2.1h-2c-.3 1.1-6.3 2-13.6 2-4.3 0-8.4-.3-10.9-.8-1.9.2-4 .3-6.1.3-7.2 0-13-1-13-2.3 0-.1 0-.1.1-.2-2.7-.4-4.2-1-4.2-1.6 0-1.1 5-2 11.4-2.1.9-1.4 6.5-2.4 13.2-2.4 5.4 0 10.2.7 12.3 1.7 1.6-.2 3.4-.2 5.2-.2 5.4 0 10.1.7 11.3 1.8 4.8-.1 8.2.8 8.2 1.7z" fill="#ccc"/><path d="m99.3 80.1c0 1.2-5.3 2.1-11.9 2.1h-2c-.3 1.1-6.3 2-13.6 2-4.3 0-8.4-.3-10.9-.8-1.9.2-4 .3-6.1.3-7.2 0-13-1-13-2.3 0-.1 0-.1.1-.2-2.7-.4-4.2-1-4.2-1.6 0-1.1 5-2 11.4-2.1.9-1.4 6.5-2.4 13.2-2.4 5.4 0 10.2.7 12.3 1.7 1.6-.2 3.4-.2 5.2-.2 5.4 0 10.1.7 11.3 1.8 4.8-.1 8.2.8 8.2 1.7z" fill="none" stroke="#ccc" stroke-miterlimit="10"/></g><g opacity=".75"><path d="m74.9 63.2c0 1.4-6.1 2.5-13.5 2.5h-2.3c-.3 1.3-7.1 2.3-15.5 2.3-4.9 0-9.5-.4-12.4-1-2.1.2-4.6.3-7 .3-8.2 0-14.8-1.2-14.8-2.7 0-.1 0-.2.1-.3-3-.5-4.7-1.2-4.7-1.9 0-1.3 5.6-2.4 13-2.5 1-1.6 7.4-2.9 15-2.9 6.1 0 11.6.8 14 2 1.8-.2 3.9-.3 5.9-.3 6.2 0 11.5.9 12.8 2.1 5.5.3 9.4 1.3 9.4 2.4z" fill="#ccc"/><path d="m74.9 63.2c0 1.4-6.1 2.5-13.5 2.5h-2.3c-.3 1.3-7.1 2.3-15.5 2.3-4.9 0-9.5-.4-12.4-1-2.1.2-4.6.3-7 .3-8.2 0-14.8-1.2-14.8-2.7 0-.1 0-.2.1-.3-3-.5-4.7-1.2-4.7-1.9 0-1.3 5.6-2.4 13-2.5 1-1.6 7.4-2.9 15-2.9 6.1 0 11.6.8 14 2 1.8-.2 3.9-.3 5.9-.3 6.2 0 11.5.9 12.8 2.1 5.5.3 9.4 1.3 9.4 2.4z" fill="none" stroke="#ccc" stroke-miterlimit="10"/></g><path d="m111.6 39.4c0 1.4-7.4 2.5-16.6 2.5h-2.8c-.4 1.3-8.7 2.3-18.9 2.3-6 0-11.6-.4-15.2-1-2.6.2-5.6.3-8.5.3-10 0-18.1-1.2-18.1-2.8 0-.1 0-.2.1-.3-3.7-.5-5.8-1.2-5.8-1.9 0-1.3 6.9-2.4 15.8-2.5 1.2-1.6 9.1-2.9 18.4-2.9 7.5 0 14.2.8 17.1 2 2.3-.2 4.7-.3 7.3-.3 7.5 0 14 .9 15.7 2.1 6.8.4 11.5 1.4 11.5 2.5z" fill="#ddd" opacity=".75"/><path d="m58.2 25.4c0 1.4-4.5 2.5-10.1 2.5h-1.7c-.2 1.3-5.3 2.3-11.5 2.3-3.7 0-7.1-.4-9.2-1-1.6.2-3.4.3-5.2.3-6.1 0-11-1.2-11-2.7 0-.1 0-.2.1-.3-2.3-.5-3.5-1.2-3.5-1.9 0-1.3 4.2-2.4 9.7-2.5.7-1.6 5.5-2.9 11.2-2.9 4.6 0 8.7.8 10.4 2 1.4-.2 2.9-.3 4.4-.3 4.6 0 8.5.9 9.6 2 3.9.5 6.8 1.4 6.8 2.5z" fill="#e6e6e6"/><path d="m58.2 25.4c0 1.4-4.5 2.5-10.1 2.5h-1.7c-.2 1.3-5.3 2.3-11.5 2.3-3.7 0-7.1-.4-9.2-1-1.6.2-3.4.3-5.2.3-6.1 0-11-1.2-11-2.7 0-.1 0-.2.1-.3-2.3-.5-3.5-1.2-3.5-1.9 0-1.3 4.2-2.4 9.7-2.5.7-1.6 5.5-2.9 11.2-2.9 4.6 0 8.7.8 10.4 2 1.4-.2 2.9-.3 4.4-.3 4.6 0 8.5.9 9.6 2 3.9.5 6.8 1.4 6.8 2.5z" fill="none" stroke="#e6e6e6" stroke-miterlimit="10"/></svg>