<svg enable-background="new 0 0 100 100" viewBox="0 0 100 100" xmlns="http://www.w3.org/2000/svg"><path d="m82.1 37.5c0-.5.1-.9.1-1.4 0-8.5-6.9-15.4-15.4-15.4-2.4 0-4.6.5-6.6 1.5-3.8-5.5-10.2-9.2-17.4-9.2-11.1 0-20.1 8.5-21 19.4-10.8.8-19.4 9.9-19.4 21 0 11.6 9.4 21 21 21h55.7c10.3 0 18.6-8.3 18.6-18.6-.1-9.2-6.8-16.8-15.6-18.3z" fill="#606060"/><path d="m84.8 62v-1c0-5.7-4.7-10.4-10.4-10.4-1.6 0-3.1.4-4.5 1-2.6-3.8-6.9-6.2-11.8-6.2-7.5 0-13.6 5.8-14.2 13.1-7.4.5-13.2 6.7-13.2 14.2.1 7.9 6.5 14.3 14.3 14.3h37.7c6.9 0 12.6-5.6 12.6-12.6 0-6.2-4.6-11.4-10.5-12.4z" fill="#bcbcbc"/></svg>