<svg enable-background="new 0 0 100 100" viewBox="0 0 100 100" xmlns="http://www.w3.org/2000/svg"><path d="m95.8 47.8-14 6.3 10.1 11.7-15.5-.2 4.2 14.8-13.8-6.9-2.7 15.3-9.3-12.5-9.2 12.5-2.9-15.3-13.8 6.9 4.2-14.8-15.5.2 10.1-11.7-13.9-6.3 13.9-6.3-10.1-11.7 15.5.2-4.2-14.8 13.8 6.9 2.9-15.3 9.2 12.4 9.3-12.4 2.7 15.3 13.8-6.9-4.2 14.8 15.5-.2-10.1 11.7z" fill="#ffd400"/><ellipse cx="55.1" cy="48.5" fill="#fff" rx="24.9" ry="25.3"/><ellipse cx="55.1" cy="48.5" fill="#ffd400" rx="23" ry="23.4"/><path d="m52.8 70.6c0-.3.1-.6.1-.9 0-5.2-4.2-9.3-9.3-9.3-1.4 0-2.8.3-4 .9-2.3-3.4-6.2-5.6-10.6-5.6-6.7 0-12.3 5.2-12.8 11.8-6.7.5-12 6.1-12 12.9 0 7.1 5.8 12.8 12.8 12.8h34c6.2 0 11.4-5.1 11.4-11.4-.1-5.6-4.2-10.3-9.6-11.2z" fill="#e6e6e6"/></svg>