<svg enable-background="new 0 0 100 100" viewBox="0 0 100 100" xmlns="http://www.w3.org/2000/svg"><path d="m83.8 12.8c-4.9-4-10.9-5.5-16.7-4.7 1.3 1 2.6 2 3.9 2.9 7.6 5.4 7.4 16.5 2.3 23.3-2.5 3.3-7.1 5.6-11.2 6-4.5.4-7.7-1.1-11.3-3.7l-.6-.4c1.2 4 2.5 7.4 5.9 10.2 9.3 7.6 23 6.3 30.6-3s6.4-22.9-2.9-30.6z" fill="#e5ba03"/><path d="m74.3 40.1c0-.4.1-.8.1-1.2 0-7-5.7-12.7-12.7-12.7-2 0-3.8.4-5.5 1.2-3.1-4.6-8.4-7.6-14.4-7.6-9.1 0-16.6 7.1-17.3 16-9 .7-16.1 8.2-16.1 17.3 0 9.6 7.8 17.4 17.4 17.4h46c8.5 0 15.4-6.9 15.4-15.4 0-7.5-5.6-13.8-12.9-15z" fill="#606060"/><path d="m40.4 81.5c-1.6 1.1-2.6 1.8-3.2 3.1-1 2.3-.3 6 2.1 7 2.6 1.1 5.3 0 6.6-2.4.9-1.6 1.3-3.4.7-5.2-.3-1-.8-1.4-1-2.7-.2-1-.1-1.8 0-2.4-1.2.4-3.2 1.2-5.2 2.6zm27.6 3.1c.1 2 .2 3.2-.5 4.4-1.2 2.2-4.5 3.9-6.8 2.6-2.5-1.4-3.3-4.1-2.2-6.7.7-1.7 1.9-3.1 3.7-3.8 1-.4 1.6-.2 2.8-.8.9-.5 1.5-1 1.9-1.4.3 1.3.9 3.2 1.1 5.7zm-48.4-3.1c-1.6 1.1-2.6 1.8-3.2 3.1-1 2.3-.3 6 2.1 7 2.6 1.1 5.3 0 6.6-2.4.9-1.6 1.3-3.4.7-5.2-.3-1-.8-1.4-1-2.7-.2-1-.1-1.8 0-2.4-1.2.4-3.2 1.2-5.2 2.6z" fill="#1c3660"/></svg>