<svg enable-background="new 0 0 100 100" viewBox="0 0 100 100" xmlns="http://www.w3.org/2000/svg"><path d="m90 24.3-7.3 3.3 5.3 6.1-8.1-.1 2.2 7.7-7.2-3.6-1.4 8-4.9-6.5-4.8 6.5-1.5-8-7.2 3.6 2.2-7.7-8.1.1 5.3-6.1-7.3-3.3 7.3-3.3-5.3-6.1 8.1.1-2.2-7.7 7.2 3.6 1.5-8 4.8 6.5 4.9-6.5 1.4 8 7.2-3.6-2.2 7.7 8.1-.1-5.3 6.1z" fill="#ffd400"/><ellipse cx="68.8" cy="24.7" fill="#fff" rx="13" ry="13.2"/><ellipse cx="68.8" cy="24.7" fill="#ffd400" rx="12" ry="12.2"/><path d="m75.8 39.5c0-.4.1-.8.1-1.2 0-7-5.7-12.7-12.7-12.7-2 0-3.8.4-5.5 1.2-3.1-4.6-8.4-7.6-14.3-7.6-9.1 0-16.6 7.1-17.3 16-9 .7-16.1 8.2-16.1 17.3 0 9.6 7.8 17.4 17.4 17.4h46c8.5 0 15.4-6.9 15.4-15.4-.1-7.5-5.7-13.8-13-15z" fill="#72befc"/><path d="m73.2 63.6-.7 1.3-1.8-1-1.2.7 2.4 1.4-.7 1.2-3.1-1.8-2.6 1.5h2.2v1.5h-2.2l2.6 1.5 3.1-1.8.7 1.3-2.4 1.4 1.2.7 1.8-1 .7 1.3-1 .6 2.4 1.3-.7 1.3-2.4-1.3v1.2h-1.5v-2l-1.2-.7v2.8h-1.5v-3.6l-2.6-1.5 1.1 1.9-1.3.7-1.1-1.9v3l3.1 1.8-.7 1.3-2.4-1.4v1.4l1.8 1-.7 1.3-1-.6v2.7h-1.5v-2.7l-1 .6-.7-1.4 1.8-1v-1.4l-2.4 1.4-.8-1.4 3.1-1.8v-3l-1.1 1.9-1.3-.7 1.1-1.9-2.5 1.5v3.6h-1.5v-2.8l-1.2.7v2h-1.5v-1.2l-2.3 1.4-.7-1.3 2.3-1.4-1-.6.7-1.3 1.8 1 1.2-.7-2.4-1.4.7-1.3 3.1 1.8 2.6-1.5h-2.2v-1.5h2.2l-2.6-1.5-3.1 2.1-.7-1.3 2.4-1.4-1.2-.7-1.8 1-.7-1.3 1-.6-2.4-1.3.7-1.3 2.4 1.3v-1.2h1.5v2l1.2.7v-2.8h1.5v3.6l2.6 1.5-1.1-1.9 1.3-.7 1.1 1.9v-3l-3.3-1.6.7-1.3 2.4 1.4v-1.4l-1.8-1 .7-1.3 1 .6v-2.7h1.5v2.7l1-.6.7 1.3-1.8 1v1.4l2.4-1.4.7 1.3-3.1 1.8v3l1.1-1.9 1.3.7-1.1 1.9 2.6-1.5v-3.6h1.5v2.8l1.2-.7v-2h1.5v1.2l2.3-1.4.7 1.3-2.3 1.4zm-10.5 5.5 1.2-.7v-1.4l-1.2-.7-1.2.7v1.4zm-15.9 10.7-.7 1.3-1.8-1-1.2.7 2.4 1.4-.7 1.3-3.1-1.8-2.6 1.5h2.2v1.5h-2.2l2.6 1.5 3.1-1.8.7 1.3-2.4 1.4 1.2.7 1.8-1 .7 1.3-1 .6 2.4 1.3-.7 1.3-2.4-1.3v1.2h-1.5v-2l-1.2-1v2.8h-1.5v-3.6l-2.6-1.5 1.1 1.9-1.3.7-1.1-1.9v3l3.1 1.8-.7 1.3-2.4-1.4v1.4l1.8 1-.7 1.3-1-.6v2.7h-1.5v-2.7l-1 .6-.7-1.3 1.8-1v-1.4l-2.4 1.4-.7-1.3 3.1-1.8v-3l-1.1 1.9-1.3-.7 1.1-1.9-2.6 1.5v3.6h-1.5v-2.8l-1.2.7v2h-1.5v-1.2l-2.3 1.4-.7-1.3 2.3-1.4-1-.6.7-1.3 1.8 1 1.2-.7-2.4-1.4.7-1.3 3.1 1.8 2.6-1.5h-2.2v-1.5h2.2l-2.6-1.5-3.1 1.8-.7-1.3 2.4-1.4-1.3-.3-1.8 1-.7-1.3 1-.6-2.4-1.3.7-1.3 2.4 1.3v-1.2h1.5v2l1.2.7v-2.8h1.5v3.6l2.6 1.5-1.1-1.9 1.3-.7 1.1 1.9v-3l-3.1-1.8.7-1.3 2.4 1.4v-1.4l-1.8-1 .7-1.3 1 .6v-2.7h1.5v2.7l1-.6.7 1.3-1.8 1v1.4l2.4-1.4.7 1.3-3 1.9v3l1.1-1.9 1.3.7-1.1 1.9 2.6-1.5v-3.6h1.5v2.8l1.2-.7v-2h1.5v1.2l2.3-1.4.7 1.3-2.3 1.2zm-10.5 5.5 1.2-.7v-1.4l-1.2-.7-1.2.7v1.4z" fill="#0083ff"/></svg>