<svg enable-background="new 0 0 100 100" viewBox="0 0 100 100" xmlns="http://www.w3.org/2000/svg"><path d="m83.5 11.6c-4.9-4-10.9-5.5-16.7-4.7 1.3 1 2.6 2 3.9 2.9 7.6 5.4 7.4 16.5 2.3 23.3-2.5 3.3-7.1 5.6-11.2 6-4.5.4-7.7-1.1-11.3-3.7-.2-.2-.2-.2-.5-.4 1.2 4 2.5 7.4 5.9 10.2 9.3 7.6 23 6.3 30.6-3s6.3-23-3-30.6z" fill="#f9bc26"/><path d="m79 40.5c0-.4.1-.9.1-1.3 0-7.7-6.3-14-14-14-2.2 0-4.2.4-6.1 1.3-3.4-5.1-9.2-8.4-15.7-8.4-10 0-18.3 7.8-19 17.6-9.9.8-17.7 9-17.7 19 0 10.6 8.6 19.1 19.1 19.1h50.6c9.4 0 16.9-7.6 16.9-16.9 0-8.2-6.1-15.1-14.2-16.4z" fill="#1c3660"/><path d="m71.7 71.9-.9 1.6-2.2-1.2-1.5.9 2.9 1.7-.9 1.5-3.8-2.2-3.2 1.8h2.7v1.8h-2.7l3.2 1.8 3.8-2.2.9 1.6-2.9 1.7 1.5.9 2.2-1.2.9 1.6-1.2.7 2.9 1.6-.9 1.6-2.9-1.6v1.5h-1.8v-2.4l-1.5-.9v3.4h-1.8v-4.4l-3.2-1.8 1.3 2.3-1.6.8-1.3-2.3v3.7l3.8 2.2-.9 1.6-2.9-1.7v1.7l2.2 1.2-.9 1.5-1.2-.7v3.3h-1.8v-3.3l-1.2.7-.9-1.7 2.2-1.2v-1.7l-2.9 1.7-1-1.7 3.8-2.2v-3.7l-1.3 2.3-1.7-.8 1.3-2.3-3.1 1.8v4.4h-1.8v-3.4l-1.4.8v2.4h-1.8v-1.4l-2.8 1.7-.9-1.6 2.8-1.7-1.2-.7.9-1.6 2.2 1.2 1.5-.9-2.9-1.7.9-1.6 3.8 2.2 3.2-1.8h-2.7v-1.8h2.7l-3.2-1.8-3.8 2.6-.9-1.6 2.9-1.7-1.5-.9-2.2 1.2-.9-1.6 1.2-.7-2.9-1.6.9-1.6 2.9 1.6v-1.5h1.8v2.4l1.5.9v-3.4h1.8v4.4l3.2 1.8-1.3-2.3 1.6-.9 1.3 2.3v-3.7l-4-2 .9-1.6 2.9 1.7v-1.7l-2.2-1.2.9-1.6 1.2.7v-3.3h1.8v3.3l1.2-.7.9 1.6-2.2 1.2v1.7l2.9-1.7.9 1.6-3.8 2.2v3.7l1.3-2.3 1.6.9-1.4 2.4 3.2-1.8v-4.4h1.8v3.4l1.5-.9v-2.4h1.8v1.5l2.8-1.7.9 1.6-2.8 1.7zm-12.9 6.7 1.5-.9v-1.7l-1.5-.9-1.5.9v1.7z" fill="#0083ff"/><path d="m38.7 81.1c.5 2.4.9 3.9.3 5.6-1.1 3-4.9 5.8-8 4.7-3.4-1.2-4.9-4.5-4.1-7.9.6-2.3 1.8-4.3 3.8-5.4 1.1-.6 1.9-.6 3.3-1.6 1-.7 1.6-1.6 2.1-2.2.8 1.5 1.9 3.8 2.6 6.8z" fill="#1c3660"/></svg>