<svg enable-background="new 0 0 100 100" viewBox="0 0 100 100" xmlns="http://www.w3.org/2000/svg"><path d="m76.4 36c0-.4.1-.8.1-1.2 0-7-5.7-12.7-12.7-12.7-2 0-3.8.4-5.5 1.2-3.1-4.6-8.4-7.6-14.3-7.6-9.1 0-16.6 7.1-17.3 16-9 .7-16.1 8.2-16.1 17.3 0 9.6 7.8 17.4 17.4 17.4h46c8.5 0 15.4-6.9 15.4-15.4-.1-7.5-5.7-13.8-13-15z" fill="#72befc"/><path d="m68.6 64.9-.8 1.3-1.8-1.1-1.4.9 2.6 1.4-.8 1.3-3.3-1.9-2.8 1.7h2.4v1.6h-2.3l2.8 1.6 3.3-2 .8 1.3-2.7 1.6 1.3.8 1.9-1.1.8 1.3-1.1.7 2.6 1.4-.8 1.3-2.6-1.4v1.2h-1.6v-2.2l-1.3-.8v3h-1.6v-3.9l-2.8-1.6 1.2 2.1-1.4.9-1.2-2.1v3.2l3.3 1.9-.7 1.4-2.6-1.4v1.6l1.9 1.1-.8 1.3-1.1-.7v2.9h-1.6v-2.9l-1.1.7-.8-1.4 1.9-1.1v-1.6l-2.6 1.6-.8-1.3 3.3-2v-3.2l-1.2 2.1-1.3-.8 1.2-2.1-2.9 1.7v3.8h-1.6v-3l-1.3.8v2.2h-1.6v-1.2l-2.6 1.4-.8-1.4 2.6-1.4-.8-.7.8-1.3 1.9 1.1 1.3-.8-2.6-1.4.8-1.3 3.3 1.9 2.8-1.7h-2.4v-1.6h2.3l-2.7-1.6-3.3 2-.8-1.3 2.6-1.4-1.3-.8-1.9 1.1-.8-1.3 1.1-.7-2.6-1.4.8-1.3 2.6 1.4v-1.3h1.6v2.2l1.3.8v-3h1.6v3.9l2.8 1.6-1.2-2.1 1.3-.8 1.2 2.1v-3.2l-3.5-1.9.8-1.3 2.6 1.4v-1.6l-1.9-1.1.8-1.3 1.1.7v-2.9h1.6v2.9l1.1-.7.8 1.3-1.9 1.1v1.6l2.6-1.4.8 1.3-3.3 2v3.2l1.2-2.1 1.3.8-1.2 2.1 2.8-1.6v-3.9h1.6v3l1.3-.8v-2.2h1.6v1.2l2.6-1.4.8 1.3-2.6 1.4zm-11.3 5.9 1.3-.8v-1.6l-1.3-.8-1.3.8v1.6zm-18.3 2.4c.5 2.2.8 3.5.2 5.1-1 2.7-4.4 5.3-7.3 4.2-3.1-1.1-4.5-4.1-3.8-7.2.5-2.1 1.6-3.9 3.5-4.9 1-.6 1.7-.5 3-1.5.9-.7 1.5-1.4 1.9-2 .8 1.4 1.9 3.5 2.5 6.3z" fill="#0083ff"/></svg>