<svg enable-background="new 0 0 100 100" viewBox="0 0 100 100" xmlns="http://www.w3.org/2000/svg"><path d="m84.6 29.4c0-.5.1-.8.1-1.3 0-7.9-6.4-14.3-14.3-14.3-2.2 0-4.3.5-6.1 1.4-3.5-5.1-9.5-8.5-16.2-8.5-10.3 0-18.7 7.9-19.5 18-10 .7-18 9.2-18 19.5 0 10.8 8.7 19.5 19.5 19.5h51.7c9.6 0 17.3-7.7 17.3-17.3-.1-8.5-6.4-15.6-14.5-17z" fill="#606060"/><path d="m63.5 62.1-11.2 5.6 7.8-18.8-15.8 27.7 13.3-9.4-5.9 21.8-3.5-.9 2.1 5.2 7.6-2.7-4-.9z" fill="#f72649"/><path d="m50.5 37.4v-.9c0-5.2-4.3-9.5-9.5-9.5-1.5 0-2.8.4-4.1.9-2.4-3.5-6.3-5.7-10.8-5.7-6.9 0-12.5 5.3-13 12-6.8.5-12.1 6.1-12.1 13 0 7.2 5.9 13.1 13 13.1h34.5c6.3 0 11.5-5.1 11.5-11.5.1-5.8-4.1-10.5-9.5-11.4z" fill="#bcbcbc"/><path d="m47.5 46.5-12 4.1 11.2-19-20.8 27.3 14.9-7.9-10 22.6-3.3-1.5 1.1 6 8-1.6-3.8-1.7z" fill="#f72649"/></svg>