<svg enable-background="new 0 0 200 200" viewBox="0 0 200 200" xmlns="http://www.w3.org/2000/svg"><path d="m189.3 159.7-85.9-140.5c-2-3.3-6.3-4.3-9.6-2.3-.6.4-1.1.8-1.5 1.2-.8.6-1.5 1.3-2 2.2 0 0-81.1 140.7-81.2 141.3-.9 1.2-1.4 2.6-1.4 4.2 0 3.9 3.1 7 7 7h167.7c3.4 0 7.1-2.2 7.8-5.4 1.1-2.9.6-5.3-.9-7.7zm-162.9-.8 70.9-122.8 75.1 122.8h-146z" fill="#f00"/><path d="m172.5 159h-146l70.9-122.8z" fill="#fff"/><path d="m97.9 87.6-.4-.4-.3-.2-10.5 15.2.1.1 42.4 26.8.8.5 6.8-10.2zm-.6.8 5.3 4.3-9.1 12.7-5.5-3.5zm32.4 39.9-30.7-19.4 8.6-12.1 5.6 4.6-8.4 11.7 5.5 3.6 7.9-11.2 6 4.9-7.5 10.5 6.1 3.9 7-9.8 5.5 4.5z"/><path d="m78.4 89.8c0 4.8 5.1 8.7 11.3 8.7v-.3c-.2-.1-5.2-1.8-5.4-1.9l-2.8-1.9-1.9-2.1z"/><path d="m77.9 91.5c1.1-3.8 9.2-4.8 18.1-2.1l-.4.5-9.6-1.3-3.3.4-2.6 1.3z"/><path d="m77 89h4v58h-4z"/><path d="m81 148h-4c-.6 0-1-.4-1-1v-58c0-.6.4-1 1-1h4c.6 0 1 .4 1 1v58c0 .6-.4 1-1 1zm-3-2h2v-56h-2z"/></svg>